<svg viewBox="0 0 1400 700" width="1000" xmlns="http://www.w3.org/2000/svg">
<style>
svg {
    margin: 2px;
}
.schema-top {
    stroke: none;
    fill: silver;
}
.schema-bottom {
    fill: blue;
}
.top-left {
    fill: #666;
}
</style>
  <defs>
    <g id="top-rail">
        <rect x="0" y="0" width="25" height="500" />
        <rect x="0" y="0" width="4" height="500" class="top-left"/>
    </g>
  </defs>

  <rect x="0" y="0" width="1225" height="600" fill="#eee"/>

  <g class="schema-bottom">
    <rect x="0" y="100" width="1225" height="25"/>
    <rect x="0" y="475" width="1225" height="25"/>
  </g>

  <g class="schema-top">
    <rect x="0" y="25" width="25" height="550"/>
    <rect x="0" y="25" width="4" height="550" class="top-left"/>

    <use href="#top-rail" x="100" y="0"/>
    <use href="#top-rail" x="200" y="100"/>
    <use href="#top-rail" x="300" y="0"/>
    <use href="#top-rail" x="400" y="100"/>
    <use href="#top-rail" x="500" y="0"/>
    <use href="#top-rail" x="600" y="100"/>
    <use href="#top-rail" x="700" y="0"/>
    <use href="#top-rail" x="800" y="100"/>
    <use href="#top-rail" x="900" y="0"/>
    <use href="#top-rail" x="1000" y="100"/>
    <use href="#top-rail" x="1100" y="0"/>
    <use href="#top-rail" x="1200" y="50"/>

    <!-- <rect x="1175" y="50" width="25" height="500"/>
    <rect x="1196" y="50" width="4" height="500" class="top-left"/> -->
  </g>
</svg>